<svg xmlns="http://www.w3.org/2000/svg" width="301.39" height="260.4" viewBox="0 0 301.39 260.4"><title>333telegram</title><g id="Layer_2" data-name="Layer 2"><g id="Layer_1-2" data-name="Layer 1"><path d="M301.39,9.23,253.72,249.56s-6.66,16.67-25,8.67l-110-84.34-40-19.33L11.39,131.89S1.06,128.23.06,120.23s11.66-12.34,11.66-12.34l267.67-105S301.39-6.77,301.39,9.23Z" fill="#333"/><path d="M110.27,246.86s-3.21-.3-7.21-13-24.34-79.33-24.34-79.33L240.39,51.89s9.33-5.66,9,0c0,0,1.67,1-3.33,5.67s-127,114.33-127,114.33" fill="#333"/><path d="M160.9,206.23,117.39,245.9s-3.4,2.58-7.12,1l8.33-73.68" fill="#333"/></g></g></svg>