<svg xmlns="http://www.w3.org/2000/svg" width="32.04" height="26.04" viewBox="0 0 32.04 26.04"><title>333twtr</title><g id="Layer_2" data-name="Layer 2"><g id="Layer_1-2" data-name="Layer 1"><path d="M10.08,26c12.09,0,18.7-10,18.7-18.7,0-.29,0-.57,0-.85A13.29,13.29,0,0,0,32,3.08a13.34,13.34,0,0,1-3.77,1A6.71,6.71,0,0,0,31.16.48,13.38,13.38,0,0,1,27,2.08,6.57,6.57,0,0,0,15.61,6.57a6.69,6.69,0,0,0,.17,1.5A18.64,18.64,0,0,1,2.23,1.2a6.58,6.58,0,0,0,2,8.78,6.5,6.5,0,0,1-3-.82v.08a6.56,6.56,0,0,0,5.27,6.44,6.57,6.57,0,0,1-1.73.24,7.14,7.14,0,0,1-1.24-.12,6.58,6.58,0,0,0,6.14,4.56,13.14,13.14,0,0,1-8.16,2.82A13.64,13.64,0,0,1,0,23.09,18.64,18.64,0,0,0,10.08,26" fill="#333"/></g></g></svg>