<svg xmlns="http://www.w3.org/2000/svg" width="32.04" height="32.04" viewBox="0 0 32.04 32.04"><title>8b-ig</title><g id="Layer_2" data-name="Layer 2"><g id="Layer_1-2" data-name="Layer 1"><path d="M22.17,0H9.87A9.87,9.87,0,0,0,0,9.87v12.3A9.87,9.87,0,0,0,9.87,32h12.3A9.87,9.87,0,0,0,32,22.17V9.87A9.87,9.87,0,0,0,22.17,0ZM29,21a8,8,0,0,1-8,8H11.05a8,8,0,0,1-8-8V11.05a8,8,0,0,1,8-8H21a8,8,0,0,1,8,8Z" fill="#8b8b8b"/><path d="M16.45,7.64a8.44,8.44,0,1,0,8.44,8.44A8.44,8.44,0,0,0,16.45,7.64Zm0,13.51a5.08,5.08,0,1,1,5.08-5.07A5.07,5.07,0,0,1,16.45,21.15Z" fill="#8b8b8b"/><path d="M26.45,7.51A2.15,2.15,0,1,1,24.3,5.36,2.14,2.14,0,0,1,26.45,7.51Z" fill="#8b8b8b"/></g></g></svg>