<svg xmlns="http://www.w3.org/2000/svg" xmlns:xlink="http://www.w3.org/1999/xlink" width="536.32" height="90.59" viewBox="0 0 536.32 90.59"><defs><linearGradient id="linear-gradient" x1="9.51" y1="19.26" x2="61.57" y2="71.33" gradientUnits="userSpaceOnUse"><stop offset="0" stop-color="#a6ff33"/><stop offset="1" stop-color="#13afbc"/></linearGradient></defs><title>hedgetrade_logo2</title><g id="Layer_2" data-name="Layer 2"><g id="Layer_2-2" data-name="Layer 2"><polygon points="52.8 15.54 48.52 39.82 24.49 39.82 28.77 15.54 13.23 15.54 2.74 75.05 0 90.59 18.28 75.05 18.28 75.05 22.3 52.22 46.33 52.22 42.3 75.05 57.84 75.05 68.34 15.54 71.08 0 52.8 15.54" fill="url(#linear-gradient)"/><path d="M114.57,23.56V41.39h17.65V23.56h11.41V67.27H132.22V50.5H114.57V67.27H103.16V23.56Z" fill="#fff"/><path d="M186.6,23.56v9.1H163.52v8.17h20.83v9.05l-20.83.06v8.23h23.7v9.1H152.11V23.56Z" fill="#fff"/><path d="M236.3,45.39c0,13-9.54,21.88-23.7,21.88H194.2V23.56H213C226.88,23.56,236.3,32.41,236.3,45.39Zm-11.66.12c0-7.55-4.93-12.66-11.85-12.66h-7.17v25.2h7.73C220,58.05,224.64,53,224.64,45.51Z" fill="#fff"/><path d="M270.16,45H280V62.16a35,35,0,0,1-18.21,5.61c-13.34,0-23.38-9.6-23.38-22.32s10.29-22.2,24.13-22.2a28.11,28.11,0,0,1,18,6.48l-6.48,8a17.66,17.66,0,0,0-11.54-4.81,12.19,12.19,0,0,0-12.35,12.54,12.28,12.28,0,0,0,12.48,12.6A17.86,17.86,0,0,0,270.16,56Z" fill="#fff"/><path d="M322.05,23.56v9.1H299v8.17H319.8v9.05L299,49.94v8.23h23.7v9.1H287.56V23.56Z" fill="#fff"/><path d="M359.59,23.62v4.62H345.31v39h-5v-39H326.1V23.62Z" fill="#fff"/><path d="M395.38,67.27l-9.17-14c-.87.06-1.8.12-2.8.12h-11.6V67.27h-5V23.62h16.59c10.91,0,17.21,5.36,17.21,14.66,0,7.17-3.55,12.09-9.85,14.09l10.29,14.9Zm-12-18.45c7.92,0,12.41-3.56,12.41-10.42,0-6.67-4.49-10.16-12.41-10.16h-11.6V48.82Z" fill="#fff"/><path d="M439.47,56.11H415.71l-4.86,11.16h-5.3l19.58-43.65h5.17l19.52,43.65H444.4Zm-2-4.61-9.92-22.45L417.77,51.5Z" fill="#fff"/><path d="M496.78,45.45c0,12.41-9.79,21.82-22.64,21.82H456.68V23.62h17.65C487.05,23.62,496.78,33,496.78,45.45Zm-5,.06a17.13,17.13,0,0,0-17.52-17.27H461.67V62.66h12.72A17,17,0,0,0,491.73,45.51Z" fill="#fff"/><path d="M535.51,23.62v4.62H510.87V42.89h22v4.55h-22V62.66h25.45v4.61H505.88V23.62Z" fill="#fff"/></g></g></svg>