<svg xmlns="http://www.w3.org/2000/svg" viewBox="0 0 22.91 22.91"><defs><style>.cls-1{fill:#fff;}</style></defs><g id="Layer_2" data-name="Layer 2"><g id="Layer_1-2" data-name="Layer 1"><path class="cls-1" d="M20.05,22.91a2.89,2.89,0,0,1-2.87-2.86V6.68h5.73V20.05A2.87,2.87,0,0,1,20.05,22.91Zm-1-14.32V20.05a1,1,0,0,0,.27.66,1,1,0,0,0,.69.29,1,1,0,0,0,.95-.95V8.59Z"/><path class="cls-1" d="M20.05,22.91H2.86A2.87,2.87,0,0,1,0,20.05V0H19.09V20.05a1,1,0,0,0,.27.66,1,1,0,0,0,.69.29ZM1.91,1.91V20.05a1,1,0,0,0,1,.95H17.34a3,3,0,0,1-.16-.95V1.91Z"/><path class="cls-1" d="M15.27,11.45H3.82V3.82H15.27ZM5.73,9.55h7.63V5.73H5.73Z"/><rect class="cls-1" x="3.82" y="13.36" width="11.45" height="1.91"/><rect class="cls-1" x="3.82" y="17.18" width="11.45" height="1.91"/></g></g></svg>