<svg xmlns="http://www.w3.org/2000/svg" viewBox="0 0 22.91 21"><defs><style>.cls-1{fill:#fff;}</style></defs><g id="Layer_2" data-name="Layer 2"><g id="Layer_1-2" data-name="Layer 1"><path class="cls-1" d="M17.18,21H0V6.68H17.18ZM1.91,19.09H15.27V8.59H1.91Z"/><path class="cls-1" d="M22.91,21H20.67l-5.4-4.31V11l5.4-4.32h2.24Zm-5.73-5.23L21,18.82v-10l-3.82,3.05Z"/><path class="cls-1" d="M4.29,8.59A4.3,4.3,0,1,1,8.59,4.3,4.3,4.3,0,0,1,4.29,8.59Zm0-6.68A2.39,2.39,0,1,0,6.68,4.3,2.39,2.39,0,0,0,4.29,1.91Z"/><path class="cls-1" d="M12.89,8.59A4.3,4.3,0,1,1,17.18,4.3,4.3,4.3,0,0,1,12.89,8.59Zm0-6.68A2.39,2.39,0,1,0,15.27,4.3,2.39,2.39,0,0,0,12.89,1.91Z"/><polygon class="cls-1" points="5.73 16.82 5.73 10.87 11.68 13.84 5.73 16.82"/></g></g></svg>