<svg xmlns="http://www.w3.org/2000/svg" viewBox="0 0 28.78 27.49"><defs><style>.cls-1{fill:#fff;}</style></defs><g id="Layer_2" data-name="Layer 2"><g id="Design"><path class="cls-1" d="M28.78,16.86V27a.46.46,0,0,1-.45.46H23.07a.46.46,0,0,1-.45-.46V17.57c0-2.49-.89-4.19-3.12-4.19a3.37,3.37,0,0,0-3.16,2.26,4,4,0,0,0-.21,1.5V27a.46.46,0,0,1-.45.46H10.43A.46.46,0,0,1,10,27c0-2.52.07-14.74,0-17.61A.46.46,0,0,1,10.44,9h5.24a.46.46,0,0,1,.45.46v2.17l0,.06h0v-.06a6.12,6.12,0,0,1,5.56-3.06c4,0,7.09,2.65,7.09,8.34ZM.86,27.49H6.11A.46.46,0,0,0,6.56,27V9.41A.46.46,0,0,0,6.11,9H.86a.47.47,0,0,0-.46.46V27A.47.47,0,0,0,.86,27.49Z"/><circle class="cls-1" cx="3.3" cy="3.3" r="3.3"/></g></g></svg>