<svg xmlns="http://www.w3.org/2000/svg" viewBox="0 0 31.81 26.2"><defs><style>.cls-1{fill:#fff;}</style></defs><g id="Layer_2" data-name="Layer 2"><g id="Design"><path class="cls-1" d="M31.69,3.14a12.82,12.82,0,0,1-3.21.92C29,4,29.76,3,30.06,2.66A5.73,5.73,0,0,0,31.13.71c0-.06.05-.13,0-.17a.2.2,0,0,0-.17,0A15.94,15.94,0,0,1,27.14,2a.25.25,0,0,1-.26-.07,3.64,3.64,0,0,0-.34-.34A6.61,6.61,0,0,0,24.69.47,6.52,6.52,0,0,0,21.86,0a6.82,6.82,0,0,0-2.69.76A6.93,6.93,0,0,0,17,2.55a6.67,6.67,0,0,0-1.3,2.59,7.22,7.22,0,0,0-.07,2.74c0,.16,0,.18-.13.16C10.26,7.26,5.91,5.38,2.39,1.36c-.16-.17-.24-.17-.37,0-1.54,2.32-.79,6,1.14,7.86a9,9,0,0,0,.8.71,6.8,6.8,0,0,1-2.53-.71c-.15-.09-.23,0-.24.13a4,4,0,0,0,0,.76,6.74,6.74,0,0,0,4.15,5.36,3.4,3.4,0,0,0,.84.25,7.1,7.1,0,0,1-2.49.08c-.18,0-.25.06-.18.23a7,7,0,0,0,5.22,4.37c.24,0,.47,0,.71.1,0,0,0,0,0,0-.59.89-2.62,1.55-3.56,1.88a12.63,12.63,0,0,1-5.41.7c-.3-.05-.36,0-.44,0s0,.12.09.19c.37.25.74.46,1.12.67a18.25,18.25,0,0,0,3.62,1.45c6.5,1.79,13.82.47,18.7-4.38,3.83-3.8,5.17-9,5.17-14.31,0-.21.25-.32.39-.43a12.42,12.42,0,0,0,2.53-2.64.78.78,0,0,0,.16-.51v0C31.81,3.06,31.82,3.08,31.69,3.14Z"/></g></g></svg>