<svg xmlns="http://www.w3.org/2000/svg" viewBox="0 0 34.13 34.13"><defs><style>.cls-1{fill:#fff;}</style></defs><g id="Layer_2" data-name="Layer 2"><g id="Design"><path class="cls-1" d="M26,6.28a2,2,0,1,0,2,2A2,2,0,0,0,26,6.28ZM17.12,8.86a8.43,8.43,0,1,0,8.43,8.42A8.44,8.44,0,0,0,17.12,8.86Zm0,13.82a5.4,5.4,0,1,1,5.4-5.4A5.41,5.41,0,0,1,17.12,22.68Zm17-12.4A10.28,10.28,0,0,0,23.85,0H10.28A10.28,10.28,0,0,0,0,10.28V23.85A10.28,10.28,0,0,0,10.28,34.13H23.85A10.28,10.28,0,0,0,34.13,23.85ZM30.91,23.85a7.06,7.06,0,0,1-7.06,7.06H10.28a7.06,7.06,0,0,1-7.06-7.06V10.28a7.06,7.06,0,0,1,7.06-7.06H23.85a7.06,7.06,0,0,1,7.06,7.06Z"/></g></g></svg>