<svg xmlns="http://www.w3.org/2000/svg" width="122.51" height="99.57" viewBox="0 0 122.51 99.57"><title>wht-twitter</title><g id="Layer_2" data-name="Layer 2"><g id="Layer_1-2" data-name="Layer 1"><path d="M38.53,99.57c46.24,0,71.52-38.31,71.52-71.52,0-1.09,0-2.17-.07-3.25a50.86,50.86,0,0,0,12.53-13,50.23,50.23,0,0,1-14.43,4,25.3,25.3,0,0,0,11.06-13.9,50.59,50.59,0,0,1-16,6.1A25.14,25.14,0,0,0,59.7,25.13a26,26,0,0,0,.64,5.74A71.39,71.39,0,0,1,8.53,4.6a25.14,25.14,0,0,0,7.78,33.56A25,25,0,0,1,4.92,35v.32A25.14,25.14,0,0,0,25.08,60a24.8,24.8,0,0,1-11.34.43A25.15,25.15,0,0,0,37.21,77.86,50.38,50.38,0,0,1,6,88.62a49.53,49.53,0,0,1-6-.35,71.06,71.06,0,0,0,38.53,11.3" fill="#fff"/></g></g></svg>