<svg xmlns="http://www.w3.org/2000/svg" width="132.68" height="132.67" viewBox="0 0 132.68 132.67"><title>wht-instagram</title><g id="Layer_2" data-name="Layer 2"><g id="Layer_1-2" data-name="Layer 1"><path d="M91.8,0H40.88A40.88,40.88,0,0,0,0,40.88V91.8a40.87,40.87,0,0,0,40.88,40.87H91.8A40.87,40.87,0,0,0,132.68,91.8V40.88A40.88,40.88,0,0,0,91.8,0Zm28.14,86.91a33,33,0,0,1-33,33H45.77a33,33,0,0,1-33-33V45.76a33,33,0,0,1,33-33H86.91a33,33,0,0,1,33,33Z" fill="#fff"/><path d="M68.12,31.62a34.95,34.95,0,1,0,34.94,34.95A34.94,34.94,0,0,0,68.12,31.62Zm0,56a21,21,0,1,1,21-21A21,21,0,0,1,68.12,87.59Z" fill="#fff"/><path d="M109.53,31.08a8.89,8.89,0,1,1-8.89-8.89A8.88,8.88,0,0,1,109.53,31.08Z" fill="#fff"/></g></g></svg>